<?xml version="1.0" encoding="utf-8"?>
<COLLADA xmlns="http://www.collada.org/2005/11/COLLADASchema" version="1.4.1" xmlns:xsi="http://www.w3.org/2001/XMLSchema-instance">
  <asset>
    <contributor>
      <author>Blender User</author>
      <authoring_tool>Blender 4.4.0 commit date:2025-03-17, commit time:17:00, hash:05377985c527</authoring_tool>
    </contributor>
    <created>2025-12-23T18:09:33</created>
    <modified>2025-12-23T18:09:33</modified>
    <unit name="meter" meter="1"/>
    <up_axis>Z_UP</up_axis>
  </asset>
  <library_cameras>
    <camera id="Camera-camera" name="Camera">
      <optics>
        <technique_common>
          <perspective>
            <xfov sid="xfov">39.59775</xfov>
            <aspect_ratio>1.777778</aspect_ratio>
            <znear sid="znear">0.1</znear>
            <zfar sid="zfar">100</zfar>
          </perspective>
        </technique_common>
      </optics>
      <extra>
        <technique profile="blender">
          <shiftx sid="shiftx" type="float">0</shiftx>
          <shifty sid="shifty" type="float">0</shifty>
          <dof_distance sid="dof_distance" type="float">10</dof_distance>
        </technique>
      </extra>
    </camera>
  </library_cameras>
  <library_lights>
    <light id="Light-light" name="Light">
      <technique_common>
        <point>
          <color sid="color">1000 1000 1000</color>
          <constant_attenuation>1</constant_attenuation>
          <linear_attenuation>0</linear_attenuation>
          <quadratic_attenuation>0</quadratic_attenuation>
        </point>
      </technique_common>
      <extra>
        <technique profile="blender">
          <type sid="type" type="int">0</type>
          <flag sid="flag" type="int">0</flag>
          <mode sid="mode" type="int">2097153</mode>
          <red sid="red" type="float">1</red>
          <green sid="green" type="float">1</green>
          <blue sid="blue" type="float">1</blue>
          <energy sid="blender_energy" type="float">1000</energy>
          <spotsize sid="spotsize" type="float">75</spotsize>
          <spotblend sid="spotblend" type="float">0.15</spotblend>
          <clipsta sid="clipsta" type="float">0.04999995</clipsta>
          <clipend sid="clipend" type="float">40</clipend>
          <radius sid="radius" type="float">0.1</radius>
          <area_shape sid="area_shape" type="int">1</area_shape>
          <area_size sid="area_size" type="float">0.1</area_size>
          <area_sizey sid="area_sizey" type="float">0.1</area_sizey>
          <area_sizez sid="area_sizez" type="float">1</area_sizez>
        </technique>
      </extra>
    </light>
  </library_lights>
  <library_effects>
    <effect id="Shape-effect">
      <profile_COMMON>
        <technique sid="common">
          <lambert>
            <emission>
              <color sid="emission">0 0 0 1</color>
            </emission>
            <diffuse>
              <color sid="diffuse">0.792157 0.819608 0.933333 1</color>
            </diffuse>
            <index_of_refraction>
              <float sid="ior">1.5</float>
            </index_of_refraction>
          </lambert>
        </technique>
      </profile_COMMON>
    </effect>
  </library_effects>
  <library_images/>
  <library_materials>
    <material id="Shape-material" name="Shape">
      <instance_effect url="#Shape-effect"/>
    </material>
  </library_materials>
  <library_geometries>
    <geometry id="Shape_IndexedFaceSet-mesh" name="Shape_IndexedFaceSet">
      <mesh>
        <source id="Shape_IndexedFaceSet-mesh-positions">
          <float_array id="Shape_IndexedFaceSet-mesh-positions-array" count="468">-0.08696198 0 -0.00257796 -0.08696198 0.02499997 -0.00257796 -0.08665597 0 0.007725 -0.08665597 0.02499997 0.007725 -0.08604598 0 -0.01284497 -0.08604598 0.02499997 -0.01284497 -0.08513396 0 0.01791995 -0.08513396 0.02499997 0.01791995 -0.08392298 0 -0.02293199 -0.08392298 0.02499997 -0.02293199 -0.08241695 0 0.02786296 -0.08241695 0.02499997 0.02786296 -0.08062195 0 -0.03269696 -0.08062195 0.02499997 -0.03269696 -0.078543 0 0.03741598 -0.078543 0.02499997 0.03741598 -0.07618898 0 -0.04200297 -0.07618898 0.02499997 -0.04200297 -0.07356697 0 0.04644298 -0.07356697 0.02499997 0.04644298 -0.07068598 0 -0.05071896 -0.07068598 0.02499997 -0.05071896 -0.06755799 0 0.05481797 -0.06755799 0.02499997 0.05481797 -0.06419098 0 -0.05872398 -0.06419098 0.02499997 -0.05872398 -0.06059998 0 0.06242299 -0.06059998 0.02499997 0.06242299 -0.05679595 0 -0.065903 -0.05679595 0.02499997 -0.065903 -0.05279195 0 0.06915199 -0.05279195 0.02499997 0.06915199 -0.04860198 0 -0.07215797 -0.04860198 0.02499997 -0.07215797 -0.04424196 0 0.07491099 -0.04424196 0.02499997 0.07491099 -0.03972697 0 -0.07739996 -0.03972697 0.02499997 -0.07739996 -0.03507196 0 0.07961797 -0.03507196 0.02499997 0.07961797 -0.030294 0 -0.08155596 -0.030294 0.02499997 -0.08155596 -0.02540898 0 0.08320695 -0.02540898 0.02499997 0.08320695 -0.02043497 0 -0.08456599 -0.02043497 0.02499997 -0.08456599 -0.01538896 0 0.08562797 -0.01538896 0.02499997 0.08562797 -0.01499998 0 0 -0.01499998 0.02499997 0 -0.01448899 0 -0.00388199 -0.01448899 0 0.00388199 -0.01448899 0.02499997 -0.00388199 -0.01448899 0.02499997 0.00388199 -0.01298999 0 -0.007499992 -0.01298999 0 0.007499992 -0.01298999 0.02499997 -0.007499992 -0.01298999 0.02499997 0.007499992 -0.010607 0 -0.010607 -0.010607 0 0.010607 -0.010607 0.02499997 -0.010607 -0.010607 0.02499997 0.010607 -0.01028996 0 -0.086389 -0.01028996 0.02499997 -0.086389 -0.007499992 0 -0.01298999 -0.007499992 0 0.01298999 -0.007499992 0.02499997 -0.01298999 -0.007499992 0.02499997 0.01298999 -0.005153954 0 0.086847 -0.005153954 0.02499997 0.086847 -0.00388199 0 -0.01448899 -0.00388199 0 0.01448899 -0.00388199 0.02499997 -0.01448899 -0.00388199 0.02499997 0.01448899 0 0 -0.08699995 0 0 -0.01499998 0 0 0.01499998 0 0 0.08699995 0 0.02499997 -0.08699995 0 0.02499997 -0.01499998 0 0.02499997 0.01499998 0 0.02499997 0.08699995 0.00388199 0 -0.01448899 0.00388199 0 0.01448899 0.00388199 0.02499997 -0.01448899 0.00388199 0.02499997 0.01448899 0.005153954 0 0.086847 0.005153954 0.02499997 0.086847 0.007499992 0 -0.01298999 0.007499992 0 0.01298999 0.007499992 0.02499997 -0.01298999 0.007499992 0.02499997 0.01298999 0.01028996 0 -0.086389 0.01028996 0.02499997 -0.086389 0.010607 0 -0.010607 0.010607 0 0.010607 0.010607 0.02499997 -0.010607 0.010607 0.02499997 0.010607 0.01298999 0 -0.007499992 0.01298999 0 0.007499992 0.01298999 0.02499997 -0.007499992 0.01298999 0.02499997 0.007499992 0.01448899 0 -0.00388199 0.01448899 0 0.00388199 0.01448899 0.02499997 -0.00388199 0.01448899 0.02499997 0.00388199 0.01499998 0 0 0.01499998 0.02499997 0 0.01538896 0 0.08562797 0.01538896 0.02499997 0.08562797 0.02043497 0 -0.08456599 0.02043497 0.02499997 -0.08456599 0.02540898 0 0.08320695 0.02540898 0.02499997 0.08320695 0.030294 0 -0.08155596 0.030294 0.02499997 -0.08155596 0.03507196 0 0.07961797 0.03507196 0.02499997 0.07961797 0.03972697 0 -0.07739996 0.03972697 0.02499997 -0.07739996 0.04424196 0 0.07491099 0.04424196 0.02499997 0.07491099 0.04860198 0 -0.07215797 0.04860198 0.02499997 -0.07215797 0.05279195 0 0.06915199 0.05279195 0.02499997 0.06915199 0.05679595 0 -0.065903 0.05679595 0.02499997 -0.065903 0.06059998 0 0.06242299 0.06059998 0.02499997 0.06242299 0.06419098 0 -0.05872398 0.06419098 0.02499997 -0.05872398 0.06755799 0 0.05481797 0.06755799 0.02499997 0.05481797 0.07068598 0 -0.05071896 0.07068598 0.02499997 -0.05071896 0.07356697 0 0.04644298 0.07356697 0.02499997 0.04644298 0.07618898 0 -0.04200297 0.07618898 0.02499997 -0.04200297 0.078543 0 0.03741598 0.078543 0.02499997 0.03741598 0.08062195 0 -0.03269696 0.08062195 0.02499997 -0.03269696 0.08241695 0 0.02786296 0.08241695 0.02499997 0.02786296 0.08392298 0 -0.02293199 0.08392298 0.02499997 -0.02293199 0.08513396 0 0.01791995 0.08513396 0.02499997 0.01791995 0.08604598 0 -0.01284497 0.08604598 0.02499997 -0.01284497 0.08665597 0 0.007725 0.08665597 0.02499997 0.007725 0.08696198 0 -0.00257796 0.08696198 0.02499997 -0.00257796</float_array>
          <technique_common>
            <accessor source="#Shape_IndexedFaceSet-mesh-positions-array" count="156" stride="3">
              <param name="X" type="float"/>
              <param name="Y" type="float"/>
              <param name="Z" type="float"/>
            </accessor>
          </technique_common>
        </source>
        <source id="Shape_IndexedFaceSet-mesh-normals">
          <float_array id="Shape_IndexedFaceSet-mesh-normals-array" count="1518">0 1 0 0 1 0 0 1 1.54594e-7 0 1 0 0 1 0 0 1 3.14325e-7 0 1 1.80416e-7 0 1 8.24287e-7 0 1 -1.80448e-7 0 1 -3.14017e-7 0 1 -2.58129e-7 0 1 0 0 1 0 0 1 1.57196e-7 0 1 1.57166e-7 0 1 0 0 1 -1.56997e-7 0 1 3.28831e-7 0 1 0 0 1 -4.12249e-7 0 1 0 0 1 0 0 1 0 0 1 1.25255e-7 0 1 3.14393e-7 0 1 -2.58213e-7 0 1 -1.9626e-7 0 1 0 0 1 0 0 1 -9.81454e-7 0 1 3.13736e-7 0 1 0 0 1 0 0 1 1.96453e-7 0 1 0 0 1 -8.26487e-7 0 1 1.76477e-7 0 -1 0 0.05922347 -8.13441e-7 0.9982448 6.30692e-6 -1.42406e-6 1 6.27898e-6 -1.42027e-7 1 -6.30692e-6 1.42406e-6 1 -6.27898e-6 1.42027e-7 1 -0.05922347 8.13441e-7 0.9982448 9.90927e-7 -8.16077e-7 1 -0.05921614 -1.41946e-6 0.9982452 -0.0592162 -1.42492e-7 0.9982452 -0.05925512 4.12e-6 0.9982429 -0.05925512 -2.82887e-6 0.9982429 -0.1768583 -9.33185e-7 0.9842363 -0.05925691 9.3691e-7 0.9982427 -0.17686 -4.12e-6 0.984236 -0.17686 2.82887e-6 0.984236 -0.1768866 4.64945e-6 0.9842312 -0.1768866 -2.82887e-6 0.9842312 -0.2920541 7.05011e-6 0.9564019 -0.1768866 -7.04452e-6 0.9842312 -0.2920541 -4.6532e-6 0.9564019 -0.2920541 2.83116e-6 0.9564019 -0.292054 4.46591e-6 0.9564019 -0.292054 -2.82887e-6 0.9564019 -0.4031216 -1.73971e-6 0.9151465 -0.2920523 1.73785e-6 0.9564024 -0.4031201 -4.46952e-6 0.9151472 -0.4031201 2.83116e-6 0.9151472 -0.4031298 4.20811e-6 0.9151428 -0.4031298 -2.83116e-6 0.9151428 -0.508538 -1.16229e-6 0.8610396 -0.4031306 1.16229e-6 0.9151425 -0.5085386 -4.20472e-6 0.8610392 -0.5085386 2.82887e-6 0.8610392 -0.508561 4.84005e-6 0.8610259 -0.508561 -2.82887e-6 0.8610259 -0.6067904 6.63102e-6 0.794862 -0.5085611 -6.63102e-6 0.861026 -0.6067904 -4.84005e-6 0.7948619 -0.6067904 2.82887e-6 0.7948619 -0.6068239 4.19766e-6 0.7948364 -0.6068239 -2.82887e-6 0.7948364 -0.6965388 -1.11945e-6 0.7175192 -0.6068229 1.11945e-6 0.7948372 -0.6965378 -4.19766e-6 0.7175202 -0.6965378 2.82887e-6 0.7175202 -0.696561 4.34239e-6 0.7174977 -0.696561 -2.82658e-6 0.7174977 -0.776503 -1.45473e-6 0.6301136 -0.6965606 1.44914e-6 0.717498 -0.7765026 -4.34941e-6 0.6301141 -0.7765026 2.83116e-6 0.6301141 -0.7765214 4.31409e-6 0.6300909 -0.7765214 -2.83116e-6 0.6300909 -0.8455944 -1.39698e-6 0.5338259 -0.7765218 1.40257e-6 0.6300905 -0.8455948 -4.3106e-6 0.5338255 -0.8455948 2.82887e-6 0.5338255 -0.8456098 4.27876e-6 0.5338017 -0.8456097 -2.83116e-6 0.5338017 -0.9027886 -1.30758e-6 0.4300845 -0.8456093 1.30944e-6 0.5338024 -0.9027883 -4.27185e-6 0.4300853 -0.9027883 2.82658e-6 0.4300853 -0.9027994 4.8157e-6 0.430062 -0.9027994 -2.83116e-6 0.430062 -0.9473279 6.68317e-6 0.3202657 -0.9027996 -6.68876e-6 0.4300619 -0.9473279 -4.81181e-6 0.3202655 -0.9473279 2.82887e-6 0.3202655 -0.9473317 4.22589e-6 0.3202541 -0.9473317 -2.82887e-6 0.3202541 -0.9785503 -1.19396e-6 0.2060083 -0.9473317 1.19768e-6 0.3202542 -0.9785503 -4.22589e-6 0.2060084 -0.9785503 2.82887e-6 0.2060084 -0.9785602 4.46591e-6 0.2059612 -0.9785602 -2.82887e-6 0.2059612 -0.9960473 -1.74344e-6 0.08882504 -0.9785602 1.74344e-6 0.2059612 -0.9960473 -4.46591e-6 0.08882504 -0.9960473 2.82887e-6 0.08882504 -0.9960514 4.22953e-6 0.08877843 -0.9960514 -2.82659e-6 0.08877843 -0.9995617 -1.19209e-6 -0.02960377 -0.9960514 1.19209e-6 0.08877843 -0.9995618 -4.23637e-6 -0.02960377 -0.9995618 2.83116e-6 -0.02960377 -0.999561 4.36707e-6 -0.02962988 -0.999561 -2.83344e-6 -0.02962988 -0.9890406 -1.49198e-6 -0.1476441 -0.999561 1.4957e-6 -0.02962988 -0.9890406 -4.3565e-6 -0.1476441 -0.9890406 2.82659e-6 -0.1476441 -0.98904 4.47297e-6 -0.1476481 -0.98904 -2.82887e-6 -0.1476481 -0.964635 -1.76206e-6 -0.2635896 -0.98904 1.75647e-6 -0.1476482 -0.9646349 -4.47658e-6 -0.2635897 -0.9646349 2.83116e-6 -0.2635897 -0.9646375 4.39531e-6 -0.2635803 -0.9646375 -2.82887e-6 -0.2635803 -0.926692 -1.57207e-6 -0.3758218 -0.9646375 1.57021e-6 -0.2635803 -0.926692 -4.39887e-6 -0.3758218 -0.926692 2.83116e-6 -0.3758218 -0.9266837 4.43061e-6 -0.3758423 -0.9266837 -2.82887e-6 -0.3758423 -0.87575 -1.66148e-6 -0.482765 -0.9266836 1.66334e-6 -0.3758426 -0.8757498 -4.43061e-6 -0.4827651 -0.8757498 2.82887e-6 -0.4827651 -0.8757231 4.39887e-6 -0.4828138 -0.8757231 -2.83116e-6 -0.4828138 -0.8124999 -1.5758e-6 -0.5829614 -0.8757231 1.57952e-6 -0.4828138 -0.8124999 -4.39176e-6 -0.5829614 -0.8124999 2.82658e-6 -0.5829614 -0.8124639 4.73739e-6 -0.5830116 -0.8124639 -2.82658e-6 -0.5830116 -0.7378385 6.84895e-6 -0.6749774 -0.8124639 -6.83963e-6 -0.5830116 -0.7378385 -4.74505e-6 -0.6749774 -0.7378385 2.83116e-6 -0.6749774 -0.7378171 3.67527e-6 -0.6750007 -0.7378171 -2.82887e-6 -0.6750007 -0.6528396 0 -0.7574963 -0.7378166 0 -0.6750012 -0.6528391 -3.67527e-6 -0.7574967 -0.6528391 2.82887e-6 -0.7574967 -0.6528179 4.7945e-6 -0.757515 -0.6528179 -2.83116e-6 -0.757515 -0.5586414 6.74091e-6 -0.8294094 -0.6528185 -6.74464e-6 -0.7575145 -0.558642 -4.79063e-6 -0.829409 -0.558642 2.82887e-6 -0.829409 -0.5586181 4.18721e-6 -0.829425 -0.5586181 -2.82659e-6 -0.829425 -0.4566404 -1.12876e-6 -0.8896515 -0.5586169 1.12318e-6 -0.8294259 -0.456639 -4.19398e-6 -0.8896521 -0.456639 2.83116e-6 -0.8896521 -0.4566245 4.44819e-6 -0.8896597 -0.4566245 -2.82659e-6 -0.8896597 -0.3481957 -1.69873e-6 -0.9374219 -0.4566252 1.70246e-6 -0.8896592 -0.3481965 -4.45898e-6 -0.9374216 -0.3481965 2.83344e-6 -0.9374216 -0.3481679 4.61788e-6 -0.9374322 -0.3481679 -2.83116e-6 -0.9374322 -0.2348967 7.13766e-6 -0.9720204 -0.3481679 -7.15069e-6 -0.9374322 -0.2348967 -4.61042e-6 -0.9720204 -0.2348967 2.82659e-6 -0.9720204 -0.2348822 4.20105e-6 -0.9720239 -0.2348822 -2.83116e-6 -0.9720239 -0.1182684 -1.12876e-6 -0.9929817 -0.2348805 1.1269e-6 -0.9720243 -0.1182666 -4.19766e-6 -0.9929819 -0.1182666 2.82887e-6 -0.9929819 -0.1182354 4.53283e-6 -0.9929856 -0.1182354 -2.82659e-6 -0.9929856 -8.9854e-6 -1.92411e-6 -1 -0.1182354 1.92039e-6 -0.9929856 -8.98168e-6 -4.54017e-6 -1 -8.98168e-6 2.83116e-6 -1 8.98168e-6 4.54017e-6 -1 8.98168e-6 -2.83116e-6 -1 0.1182354 -1.92039e-6 -0.9929856 8.9854e-6 1.92411e-6 -1 0.1182354 -4.53283e-6 -0.9929856 0.1182354 2.82659e-6 -0.9929856 0.1182666 4.19766e-6 -0.9929819 0.1182666 -2.82887e-6 -0.9929819 0.2348805 -1.1269e-6 -0.9720243 0.1182684 1.12876e-6 -0.9929817 0.2348822 -4.20105e-6 -0.9720239 0.2348822 2.83116e-6 -0.9720239 0.2348967 4.61042e-6 -0.9720204 0.2348967 -2.82659e-6 -0.9720204 0.3481679 7.15069e-6 -0.9374322 0.2348967 -7.13766e-6 -0.9720204 0.3481679 -4.61788e-6 -0.9374322 0.3481679 2.83116e-6 -0.9374322 0.3481965 4.45898e-6 -0.9374216 0.3481965 -2.83344e-6 -0.9374216 0.4566252 -1.70246e-6 -0.8896592 0.3481957 1.69873e-6 -0.9374219 0.4566245 -4.44819e-6 -0.8896597 0.4566245 2.82659e-6 -0.8896597 0.456639 4.19398e-6 -0.8896521 0.456639 -2.83116e-6 -0.8896521 0.5586169 -1.12318e-6 -0.8294259 0.4566404 1.12876e-6 -0.8896515 0.5586181 -4.18721e-6 -0.829425 0.5586181 2.82659e-6 -0.829425 0.558642 4.79063e-6 -0.829409 0.558642 -2.82887e-6 -0.829409 0.6528185 6.74464e-6 -0.7575145 0.5586414 -6.74091e-6 -0.8294094 0.6528179 -4.7945e-6 -0.757515 0.6528179 2.83116e-6 -0.757515 0.6528391 3.67527e-6 -0.7574967 0.6528391 -2.82887e-6 -0.7574967 0.7378166 0 -0.6750012 0.6528396 0 -0.7574963 0.7378171 -3.67527e-6 -0.6750007 0.7378171 2.82887e-6 -0.6750007 0.7378385 4.74505e-6 -0.6749774 0.7378385 -2.83116e-6 -0.6749774 0.8124639 6.83963e-6 -0.5830116 0.7378385 -6.84895e-6 -0.6749774 0.8124639 -4.73739e-6 -0.5830116 0.8124639 2.82658e-6 -0.5830116 0.8124999 4.39176e-6 -0.5829614 0.8124999 -2.82658e-6 -0.5829614 0.8757231 -1.57952e-6 -0.4828138 0.8124999 1.5758e-6 -0.5829614 0.8757231 -4.39887e-6 -0.4828138 0.8757231 2.83116e-6 -0.4828138 0.8757498 4.43061e-6 -0.4827651 0.8757498 -2.82887e-6 -0.4827651 0.9266836 -1.66334e-6 -0.3758426 0.87575 1.66148e-6 -0.482765 0.9266837 -4.43061e-6 -0.3758423 0.9266837 2.82887e-6 -0.3758423 0.926692 4.39887e-6 -0.3758218 0.926692 -2.83116e-6 -0.3758218 0.9646375 -1.57021e-6 -0.2635803 0.926692 1.57207e-6 -0.3758218 0.9646375 -4.39531e-6 -0.2635803 0.9646375 2.82887e-6 -0.2635803 0.9646349 4.47658e-6 -0.2635897 0.9646349 -2.83116e-6 -0.2635897 0.98904 -1.75647e-6 -0.1476482 0.964635 1.76206e-6 -0.2635896 0.98904 -4.47297e-6 -0.1476481 0.98904 2.82887e-6 -0.1476481 0.9890406 4.3565e-6 -0.1476441 0.9890406 -2.82659e-6 -0.1476441 0.999561 -1.4957e-6 -0.02962988 0.9890406 1.49198e-6 -0.1476441 0.999561 -4.36707e-6 -0.02962988 0.999561 2.83344e-6 -0.02962988 0.9995618 4.23637e-6 -0.02960377 0.9995618 -2.83116e-6 -0.02960377 0.9960514 -1.19209e-6 0.08877843 0.9995617 1.19209e-6 -0.02960377 0.9960514 -4.22953e-6 0.08877843 0.9960514 2.82659e-6 0.08877843 0.9960473 4.46591e-6 0.08882504 0.9960473 -2.82887e-6 0.08882504 0.9785602 -1.74344e-6 0.2059612 0.9960473 1.74344e-6 0.08882504 0.9785602 -4.46591e-6 0.2059612 0.9785602 2.82887e-6 0.2059612 0.9785503 4.22589e-6 0.2060084 0.9785503 -2.82887e-6 0.2060084 0.9473317 -1.19768e-6 0.3202542 0.9785503 1.19396e-6 0.2060083 0.9473317 -4.22589e-6 0.3202541 0.9473317 2.82887e-6 0.3202541 0.9473279 4.81181e-6 0.3202655 0.9473279 -2.82887e-6 0.3202655 0.9027996 6.68876e-6 0.4300619 0.9473279 -6.68317e-6 0.3202657 0.9027994 -4.8157e-6 0.430062 0.9027994 2.83116e-6 0.430062 0.9027883 4.27185e-6 0.4300853 0.9027883 -2.82658e-6 0.4300853 0.8456093 -1.30944e-6 0.5338024 0.9027886 1.30758e-6 0.4300845 0.8456098 -4.27876e-6 0.5338017 0.8456097 2.83116e-6 0.5338017 0.8455948 4.3106e-6 0.5338255 0.8455948 -2.82887e-6 0.5338255 0.7765218 -1.40257e-6 0.6300905 0.8455944 1.39698e-6 0.5338259 0.7765214 -4.31409e-6 0.6300909 0.7765214 2.83116e-6 0.6300909 0.7765026 4.34941e-6 0.6301141 0.7765026 -2.83116e-6 0.6301141 0.6965606 -1.44914e-6 0.717498 0.776503 1.45473e-6 0.6301136 0.696561 -4.34239e-6 0.7174977 0.696561 2.82658e-6 0.7174977 0.6965378 4.19766e-6 0.7175202 0.6965378 -2.82887e-6 0.7175202 0.6068229 -1.11945e-6 0.7948372 0.6965388 1.11945e-6 0.7175192 0.6068239 -4.19766e-6 0.7948364 0.6068239 2.82887e-6 0.7948364 0.6067904 4.84005e-6 0.7948619 0.6067904 -2.82887e-6 0.7948619 0.5085611 6.63102e-6 0.861026 0.6067904 -6.63102e-6 0.794862 0.508561 -4.84005e-6 0.8610259 0.508561 2.82887e-6 0.8610259 0.5085386 4.20472e-6 0.8610392 0.5085386 -2.82887e-6 0.8610392 0.4031306 -1.16229e-6 0.9151425 0.508538 1.16229e-6 0.8610396 0.4031298 -4.20811e-6 0.9151428 0.4031298 2.83116e-6 0.9151428 0.4031201 4.46952e-6 0.9151472 0.4031201 -2.83116e-6 0.9151472 0.2920523 -1.73785e-6 0.9564024 0.4031216 1.73971e-6 0.9151465 0.292054 -4.46591e-6 0.9564019 0.292054 2.82887e-6 0.9564019 0.2920541 4.6532e-6 0.9564019 0.2920541 -2.83116e-6 0.9564019 0.1768866 7.04452e-6 0.9842312 0.2920541 -7.05011e-6 0.9564019 0.1768866 -4.64945e-6 0.9842312 0.1768866 2.82887e-6 0.9842312 0.17686 4.12e-6 0.984236 0.17686 -2.82887e-6 0.984236 0.05925691 -9.3691e-7 0.9982427 0.1768583 9.33185e-7 0.9842363 0.05925512 -4.12e-6 0.9982429 0.05925512 2.82887e-6 0.9982429 0.05921614 1.41946e-6 0.9982452 0.0592162 1.42492e-7 0.9982452 -9.90927e-7 8.16077e-7 1 -9.045e-6 0 1 -9.05991e-6 -8.43406e-6 1 -0.2587738 0 0.965938 -0.2587738 8.43406e-6 0.965938 -9.0599e-6 0 1 -0.2587738 0 0.965938 -0.2588387 0 0.9659206 -0.2588387 -1.13752e-5 0.9659206 -0.4999692 0 0.8660432 -0.4999697 1.13603e-5 0.866043 -0.2588392 0 0.9659205 -0.4999697 0 0.866043 -0.5000411 0 0.8660017 -0.5000411 -8.95373e-6 0.8660017 -0.7070669 0 0.7071468 -0.7070672 8.98354e-6 0.7071464 -0.5000415 0 0.8660015 -0.7070672 0 0.7071464 -0.7071465 0 0.707067 -0.7071467 -8.98168e-6 0.707067 -0.8660016 0 0.5000413 -0.8660017 8.95187e-6 0.5000413 -0.7071465 0 0.707067 -0.8660017 0 0.5000413 -0.8660431 0 0.4999694 -0.8660431 -1.13584e-5 0.4999694 -0.9659205 0 0.2588389 -0.9659205 1.13752e-5 0.2588391 -0.866043 0 0.4999695 -0.9659205 0 0.2588391 -0.965938 0 0.2587737 -0.965938 -8.43406e-6 0.2587737 -1 0 8.9407e-6 -1 8.43406e-6 8.9407e-6 -0.965938 0 0.2587737 -1 0 8.9407e-6 -1 0 -8.9407e-6 -1 -8.43406e-6 -8.9407e-6 -0.965938 0 -0.2587737 -0.965938 8.43406e-6 -0.2587737 -1 0 -8.9407e-6 -0.965938 0 -0.2587737 -0.9659205 0 -0.2588391 -0.9659205 -1.13752e-5 -0.2588391 -0.866043 0 -0.4999695 -0.8660431 1.13584e-5 -0.4999694 -0.9659205 0 -0.2588389 -0.8660431 0 -0.4999694 -0.8660017 0 -0.5000413 -0.8660017 -8.95187e-6 -0.5000413 -0.7071465 0 -0.707067 -0.7071467 8.98168e-6 -0.707067 -0.8660016 0 -0.5000413 -0.7071465 0 -0.707067 -0.7070672 0 -0.7071464 -0.7070672 -8.98354e-6 -0.7071464 -0.5000415 0 -0.8660015 -0.5000411 8.95373e-6 -0.8660017 -0.7070669 0 -0.7071468 -0.5000411 0 -0.8660017 -0.4999697 0 -0.866043 -0.4999697 -1.13603e-5 -0.866043 -0.2588392 0 -0.9659205 -0.2588387 1.13752e-5 -0.9659206 -0.4999692 0 -0.8660432 -0.2588387 0 -0.9659206 -0.2587738 0 -0.965938 -0.2587738 -8.43406e-6 -0.965938 -9.0599e-6 0 -1 -9.05991e-6 8.43406e-6 -1 -0.2587738 0 -0.965938 -9.045e-6 0 -1 9.045e-6 0 -1 9.05991e-6 -8.43406e-6 -1 0.2587738 0 -0.965938 0.2587738 8.43406e-6 -0.965938 9.0599e-6 0 -1 0.2587738 0 -0.965938 0.2588387 0 -0.9659206 0.2588387 -1.13752e-5 -0.9659206 0.4999692 0 -0.8660432 0.4999697 1.13603e-5 -0.866043 0.2588392 0 -0.9659205 0.4999697 0 -0.866043 0.5000411 0 -0.8660017 0.5000411 -8.95373e-6 -0.8660017 0.7070669 0 -0.7071468 0.7070672 8.98354e-6 -0.7071464 0.5000415 0 -0.8660015 0.7070672 0 -0.7071464 0.7071465 0 -0.707067 0.7071467 -8.98168e-6 -0.707067 0.8660016 0 -0.5000413 0.8660017 8.95187e-6 -0.5000413 0.7071465 0 -0.707067 0.8660017 0 -0.5000413 0.8660431 0 -0.4999694 0.8660431 -1.13584e-5 -0.4999694 0.9659205 0 -0.2588389 0.9659205 1.13752e-5 -0.2588391 0.866043 0 -0.4999695 0.9659205 0 -0.2588391 0.965938 0 -0.2587737 0.965938 -8.43406e-6 -0.2587737 1 0 -8.9407e-6 1 8.43406e-6 -8.9407e-6 0.965938 0 -0.2587737 1 0 -8.9407e-6 1 0 8.9407e-6 1 -8.43406e-6 8.9407e-6 0.965938 0 0.2587737 0.965938 8.43406e-6 0.2587737 1 0 8.9407e-6 0.965938 0 0.2587737 0.9659205 0 0.2588391 0.9659205 -1.13752e-5 0.2588391 0.866043 0 0.4999695 0.8660431 1.13584e-5 0.4999694 0.9659205 0 0.2588389 0.8660431 0 0.4999694 0.8660017 0 0.5000413 0.8660017 -8.95187e-6 0.5000413 0.7071465 0 0.707067 0.7071467 8.98168e-6 0.707067 0.8660016 0 0.5000413 0.7071465 0 0.707067 0.7070672 0 0.7071464 0.7070672 -8.98354e-6 0.7071464 0.5000415 0 0.8660015 0.5000411 8.95373e-6 0.8660017 0.7070669 0 0.7071468 0.5000411 0 0.8660017 0.4999697 0 0.866043 0.4999697 -1.13603e-5 0.866043 0.2588392 0 0.9659205 0.2588387 1.13752e-5 0.9659206 0.4999692 0 0.8660432 0.2588387 0 0.9659206 0.2587738 0 0.965938 0.2587738 -8.43406e-6 0.965938 9.0599e-6 0 1 9.05991e-6 8.43406e-6 1 0.2587738 0 0.965938 9.045e-6 0 1</float_array>
          <technique_common>
            <accessor source="#Shape_IndexedFaceSet-mesh-normals-array" count="506" stride="3">
              <param name="X" type="float"/>
              <param name="Y" type="float"/>
              <param name="Z" type="float"/>
            </accessor>
          </technique_common>
        </source>
        <source id="Shape_IndexedFaceSet-mesh-map-0">
          <float_array id="Shape_IndexedFaceSet-mesh-map-0-array" count="1872">0.4137931 0.5 0 0.5 0.003511488 0.4408362 0.4137931 0.5 0.003511488 0.4408362 0.4167299 0.4776799 0 0.5 0.4137931 0.5 0.003511488 0.5591638 0.003511488 0.5591638 0.4137931 0.5 0.4167299 0.5223201 0.003511488 0.5591638 0.4167299 0.5223201 0.01398849 0.6174939 0.5832701 0.4776799 0.992115 0.4115188 0.5862069 0.5 0.5862069 0.5 0.992115 0.4115188 0.9991207 0.4703664 0.5862069 0.5 0.9991207 0.4703664 1 0.5 0.8587529 0.1515719 0.8974253 0.1964651 0.5609598 0.4390136 0.5609598 0.4390136 0.8974253 0.1964651 0.5746552 0.4568777 0.8587529 0.1515719 0.5609598 0.4390136 0.815046 0.111566 0.815046 0.111566 0.5609598 0.4390136 0.5431035 0.4253122 0.815046 0.111566 0.5431035 0.4253122 0.7669138 0.07701635 0.2586035 0.06194084 0.3120862 0.03645265 0.4568966 0.4253122 0.4568966 0.4253122 0.3120862 0.03645265 0.4776896 0.4166935 0.2586035 0.06194084 0.4568966 0.4253122 0.2085115 0.09358108 0.2085115 0.09358108 0.4568966 0.4253122 0.4390403 0.4390136 0.2085115 0.09358108 0.4390403 0.4390136 0.1625057 0.1309249 0.1625057 0.1309249 0.4390403 0.4390136 0.1212471 0.1734436 0.1212471 0.1734436 0.4390403 0.4390136 0.4253448 0.4568777 0.1212471 0.1734436 0.4253448 0.4568777 0.08529883 0.2205561 0.003511488 0.4408362 0.01398849 0.3825061 0.4167299 0.4776799 0.4167299 0.4776799 0.01398849 0.3825061 0.03128731 0.3258205 0.4167299 0.4776799 0.03128731 0.3258205 0.4253448 0.4568777 0.4253448 0.4568777 0.03128731 0.3258205 0.05517238 0.2715842 0.4253448 0.4568777 0.05517238 0.2715842 0.08529883 0.2205561 0.01398849 0.6174939 0.4167299 0.5223201 0.03128731 0.6741796 0.03128731 0.6741796 0.4167299 0.5223201 0.4253448 0.5431223 0.03128731 0.6741796 0.4253448 0.5431223 0.05517238 0.7284159 0.4851839 1 0.4261782 0.9947333 0.5 0.5862446 0.5 0.5862446 0.4261782 0.9947333 0.4776896 0.5833065 0.4851839 1 0.5 0.5862446 0.5443966 0.9982406 0.5443966 0.9982406 0.5 0.5862446 0.5223103 0.5833065 0.5443966 0.9982406 0.5223103 0.5833065 0.6029885 0.9894897 0.8974253 0.1964651 0.930523 0.2456245 0.5746552 0.4568777 0.5746552 0.4568777 0.930523 0.2456245 0.9575747 0.2983487 0.5746552 0.4568777 0.9575747 0.2983487 0.5832701 0.4776799 0.5832701 0.4776799 0.9575747 0.2983487 0.9782012 0.3539075 0.5832701 0.4776799 0.9782012 0.3539075 0.992115 0.4115188 0.5223103 0.4166935 0.5 0.4137554 0.5443966 0.00175935 0.3120862 0.03645265 0.3682069 0.0174731 0.4776896 0.4166935 0.4776896 0.4166935 0.3682069 0.0174731 0.4261782 0.005266666 0.4776896 0.4166935 0.4261782 0.005266666 0.5 0.4137554 0.5 0.4137554 0.4261782 0.005266666 0.4851839 0 0.5 0.4137554 0.4851839 0 0.5443966 0.00175935 0.05517238 0.7284159 0.4253448 0.5431223 0.08529883 0.7794439 0.08529883 0.7794439 0.4253448 0.5431223 0.4390403 0.5609864 0.08529883 0.7794439 0.4390403 0.5609864 0.1212471 0.8265565 0.4568966 0.5746878 0.2085115 0.9064189 0.4390403 0.5609864 0.4390403 0.5609864 0.2085115 0.9064189 0.1625057 0.869075 0.4390403 0.5609864 0.1625057 0.869075 0.1212471 0.8265565 0.4261782 0.9947333 0.3682069 0.9825268 0.4776896 0.5833065 0.4776896 0.5833065 0.3682069 0.9825268 0.3120862 0.9635473 0.4776896 0.5833065 0.3120862 0.9635473 0.4568966 0.5746878 0.4568966 0.5746878 0.3120862 0.9635473 0.2586035 0.9380592 0.4568966 0.5746878 0.2586035 0.9380592 0.2085115 0.9064189 0.6029885 0.9894897 0.5223103 0.5833065 0.6601322 0.9738679 0.6601322 0.9738679 0.5223103 0.5833065 0.5431035 0.5746878 0.6601322 0.9738679 0.5431035 0.5746878 0.7150345 0.9515938 0.5609598 0.5609864 0.815046 0.8884341 0.5431035 0.5746878 0.5431035 0.5746878 0.815046 0.8884341 0.7669138 0.9229836 0.5431035 0.5746878 0.7669138 0.9229836 0.7150345 0.9515938 0.5746552 0.5431223 0.8974253 0.8035349 0.5609598 0.5609864 0.5609598 0.5609864 0.8974253 0.8035349 0.8587529 0.8484281 0.5609598 0.5609864 0.8587529 0.8484281 0.815046 0.8884341 0.5832701 0.5223201 0.9575747 0.7016513 0.5746552 0.5431223 0.5746552 0.5431223 0.9575747 0.7016513 0.930523 0.7543755 0.5746552 0.5431223 0.930523 0.7543755 0.8974253 0.8035349 0.5443966 0.00175935 0.6029885 0.01051032 0.5223103 0.4166935 0.5223103 0.4166935 0.6029885 0.01051032 0.6601322 0.0261321 0.5223103 0.4166935 0.6601322 0.0261321 0.5431035 0.4253122 0.5431035 0.4253122 0.6601322 0.0261321 0.7150345 0.04840618 0.5431035 0.4253122 0.7150345 0.04840618 0.7669138 0.07701635 1 0.5 0.9991207 0.5296337 0.5862069 0.5 0.5862069 0.5 0.9991207 0.5296337 0.992115 0.5884812 0.5862069 0.5 0.992115 0.5884812 0.5832701 0.5223201 0.5832701 0.5223201 0.992115 0.5884812 0.9782012 0.6460925 0.5832701 0.5223201 0.9782012 0.6460925 0.9575747 0.7016513 0.01398849 0.3825061 0.003511488 0.4408362 0.4167299 0.4776799 0.4167299 0.4776799 0.003511488 0.4408362 0.4137931 0.5 0.01398849 0.3825061 0.4167299 0.4776799 0.03128731 0.3258205 0.03128731 0.3258205 0.4167299 0.4776799 0.4253448 0.4568777 0.03128731 0.3258205 0.4253448 0.4568777 0.05517238 0.2715842 0.4390403 0.4390136 0.1212471 0.1734436 0.4253448 0.4568777 0.4253448 0.4568777 0.1212471 0.1734436 0.08529883 0.2205561 0.4253448 0.4568777 0.08529883 0.2205561 0.05517238 0.2715842 0.4851839 0 0.4261782 0.005266666 0.5 0.4137554 0.5 0.4137554 0.4261782 0.005266666 0.4776896 0.4166935 0.4851839 0 0.5 0.4137554 0.5443966 0.00175935 0.5443966 0.00175935 0.5 0.4137554 0.5223103 0.4166935 0.5443966 0.00175935 0.5223103 0.4166935 0.6029885 0.01051032 0.4568966 0.4253122 0.2085115 0.09358108 0.4390403 0.4390136 0.4390403 0.4390136 0.2085115 0.09358108 0.1625057 0.1309249 0.4390403 0.4390136 0.1625057 0.1309249 0.1212471 0.1734436 0.4261782 0.005266666 0.3682069 0.0174731 0.4776896 0.4166935 0.4776896 0.4166935 0.3682069 0.0174731 0.3120862 0.03645265 0.4776896 0.4166935 0.3120862 0.03645265 0.4568966 0.4253122 0.4568966 0.4253122 0.3120862 0.03645265 0.2586035 0.06194084 0.4568966 0.4253122 0.2586035 0.06194084 0.2085115 0.09358108 0.5 0.5862446 0.4851839 1 0.5443966 0.9982406 0.6029885 0.01051032 0.5223103 0.4166935 0.6601322 0.0261321 0.6601322 0.0261321 0.5223103 0.4166935 0.5431035 0.4253122 0.6601322 0.0261321 0.5431035 0.4253122 0.7150345 0.04840618 0.5609598 0.4390136 0.815046 0.111566 0.5431035 0.4253122 0.5431035 0.4253122 0.815046 0.111566 0.7669138 0.07701635 0.5431035 0.4253122 0.7669138 0.07701635 0.7150345 0.04840618 0.9575747 0.2983487 0.5746552 0.4568777 0.5832701 0.4776799 0.5 0.5862446 0.5443966 0.9982406 0.5223103 0.5833065 0.003511488 0.4408362 0 0.5 0.4137931 0.5 0.4137931 0.5 0 0.5 0.003511488 0.5591638 0.4137931 0.5 0.003511488 0.5591638 0.4167299 0.5223201 0.9575747 0.2983487 0.930523 0.2456245 0.5746552 0.4568777 0.5746552 0.4568777 0.930523 0.2456245 0.8974253 0.1964651 0.5746552 0.4568777 0.8974253 0.1964651 0.5609598 0.4390136 0.5609598 0.4390136 0.8974253 0.1964651 0.8587529 0.1515719 0.5609598 0.4390136 0.8587529 0.1515719 0.815046 0.111566 0.5746552 0.5431223 0.930523 0.7543755 0.9575747 0.7016513 0.4851839 1 0.5 0.5862446 0.4261782 0.9947333 0.4261782 0.9947333 0.5 0.5862446 0.4776896 0.5833065 0.4261782 0.9947333 0.4776896 0.5833065 0.3682069 0.9825268 0.3682069 0.9825268 0.4776896 0.5833065 0.3120862 0.9635473 0.3120862 0.9635473 0.4776896 0.5833065 0.4568966 0.5746878 0.3120862 0.9635473 0.4568966 0.5746878 0.2586035 0.9380592 0.2586035 0.9380592 0.4568966 0.5746878 0.2085115 0.9064189 0.2085115 0.9064189 0.4568966 0.5746878 0.4390403 0.5609864 0.2085115 0.9064189 0.4390403 0.5609864 0.1625057 0.869075 0.003511488 0.5591638 0.01398849 0.6174939 0.4167299 0.5223201 0.4167299 0.5223201 0.01398849 0.6174939 0.03128731 0.6741796 0.4167299 0.5223201 0.03128731 0.6741796 0.4253448 0.5431223 1 0.5 0.9991207 0.4703664 0.5862069 0.5 0.5862069 0.5 0.9991207 0.4703664 0.992115 0.4115188 0.5862069 0.5 0.992115 0.4115188 0.5832701 0.4776799 0.5832701 0.4776799 0.992115 0.4115188 0.9782012 0.3539075 0.5832701 0.4776799 0.9782012 0.3539075 0.9575747 0.2983487 0.5746552 0.5431223 0.9575747 0.7016513 0.5832701 0.5223201 0.930523 0.7543755 0.5746552 0.5431223 0.8974253 0.8035349 0.8974253 0.8035349 0.5746552 0.5431223 0.5609598 0.5609864 0.8974253 0.8035349 0.5609598 0.5609864 0.8587529 0.8484281 0.03128731 0.6741796 0.05517238 0.7284159 0.4253448 0.5431223 0.4253448 0.5431223 0.05517238 0.7284159 0.08529883 0.7794439 0.4253448 0.5431223 0.08529883 0.7794439 0.4390403 0.5609864 0.4390403 0.5609864 0.08529883 0.7794439 0.1212471 0.8265565 0.4390403 0.5609864 0.1212471 0.8265565 0.1625057 0.869075 0.9575747 0.7016513 0.9782012 0.6460925 0.5832701 0.5223201 0.5832701 0.5223201 0.9782012 0.6460925 0.992115 0.5884812 0.5832701 0.5223201 0.992115 0.5884812 0.5862069 0.5 0.5862069 0.5 0.992115 0.5884812 0.9991207 0.5296337 0.5862069 0.5 0.9991207 0.5296337 1 0.5 0.8587529 0.8484281 0.5609598 0.5609864 0.815046 0.8884341 0.815046 0.8884341 0.5609598 0.5609864 0.5431035 0.5746878 0.815046 0.8884341 0.5431035 0.5746878 0.7669138 0.9229836 0.5443966 0.9982406 0.6029885 0.9894897 0.5223103 0.5833065 0.5223103 0.5833065 0.6029885 0.9894897 0.6601322 0.9738679 0.5223103 0.5833065 0.6601322 0.9738679 0.5431035 0.5746878 0.5431035 0.5746878 0.6601322 0.9738679 0.7150345 0.9515938 0.5431035 0.5746878 0.7150345 0.9515938 0.7669138 0.9229836 0.9991207 0.5296337 1 0.5 1 0.5 1 0.5 1 0.5 0.9991207 0.4703664 1 0.5 0.9991207 0.4703664 0.9991207 0.4703664 0.9991207 0.4703664 0.9991207 0.4703664 0.992115 0.4115188 0.9991207 0.4703664 0.992115 0.4115188 0.992115 0.4115188 0.992115 0.4115188 0.992115 0.4115188 0.9782012 0.3539075 0.992115 0.4115188 0.9782012 0.3539075 0.9782012 0.3539075 0.9782012 0.3539075 0.9782012 0.3539075 0.9575747 0.2983487 0.9782012 0.3539075 0.9575747 0.2983487 0.9575747 0.2983487 0.9575747 0.2983487 0.9575747 0.2983487 0.930523 0.2456245 0.9575747 0.2983487 0.930523 0.2456245 0.930523 0.2456245 0.930523 0.2456245 0.930523 0.2456245 0.8974253 0.1964651 0.930523 0.2456245 0.8974253 0.1964651 0.8974253 0.1964651 0.8974253 0.1964651 0.8974253 0.1964651 0.8587529 0.1515719 0.8974253 0.1964651 0.8587529 0.1515719 0.8587529 0.1515719 0.8587529 0.1515719 0.8587529 0.1515719 0.815046 0.111566 0.8587529 0.1515719 0.815046 0.111566 0.815046 0.111566 0.815046 0.111566 0.815046 0.111566 0.7669138 0.07701635 0.815046 0.111566 0.7669138 0.07701635 0.7669138 0.07701635 0.7669138 0.07701635 0.7669138 0.07701635 0.7150345 0.04840618 0.7669138 0.07701635 0.7150345 0.04840618 0.7150345 0.04840618 0.7150345 0.04840618 0.7150345 0.04840618 0.6601322 0.0261321 0.7150345 0.04840618 0.6601322 0.0261321 0.6601322 0.0261321 0.6601322 0.0261321 0.6601322 0.0261321 0.6029885 0.01051032 0.6601322 0.0261321 0.6029885 0.01051032 0.6029885 0.01051032 0.6029885 0.01051032 0.6029885 0.01051032 0.5443966 0.00175935 0.6029885 0.01051032 0.5443966 0.00175935 0.5443966 0.00175935 0.5443966 0.00175935 0.5443966 0.00175935 0.4851839 0 0.5443966 0.00175935 0.4851839 0 0.4851839 0 0.4851839 0 0.4851839 0 0.4261782 0.005266666 0.4851839 0 0.4261782 0.005266666 0.4261782 0.005266666 0.4261782 0.005266666 0.4261782 0.005266666 0.3682069 0.0174731 0.4261782 0.005266666 0.3682069 0.0174731 0.3682069 0.0174731 0.3682069 0.0174731 0.3682069 0.0174731 0.3120862 0.03645265 0.3682069 0.0174731 0.3120862 0.03645265 0.3120862 0.03645265 0.3120862 0.03645265 0.3120862 0.03645265 0.2586035 0.06194084 0.3120862 0.03645265 0.2586035 0.06194084 0.2586035 0.06194084 0.2586035 0.06194084 0.2586035 0.06194084 0.2085115 0.09358108 0.2586035 0.06194084 0.2085115 0.09358108 0.2085115 0.09358108 0.2085115 0.09358108 0.2085115 0.09358108 0.1625057 0.1309249 0.2085115 0.09358108 0.1625057 0.1309249 0.1625057 0.1309249 0.1625057 0.1309249 0.1625057 0.1309249 0.1212471 0.1734436 0.1625057 0.1309249 0.1212471 0.1734436 0.1212471 0.1734436 0.1212471 0.1734436 0.1212471 0.1734436 0.08529883 0.2205561 0.1212471 0.1734436 0.08529883 0.2205561 0.08529883 0.2205561 0.08529883 0.2205561 0.08529883 0.2205561 0.05517238 0.2715842 0.08529883 0.2205561 0.05517238 0.2715842 0.05517238 0.2715842 0.05517238 0.2715842 0.05517238 0.2715842 0.03128731 0.3258205 0.05517238 0.2715842 0.03128731 0.3258205 0.03128731 0.3258205 0.03128731 0.3258205 0.03128731 0.3258205 0.01398849 0.3825061 0.03128731 0.3258205 0.01398849 0.3825061 0.01398849 0.3825061 0.01398849 0.3825061 0.01398849 0.3825061 0.003511488 0.4408362 0.01398849 0.3825061 0.003511488 0.4408362 0.003511488 0.4408362 0.003511488 0.4408362 0.003511488 0.4408362 0 0.5 0.003511488 0.4408362 0 0.5 0 0.5 0 0.5 0 0.5 0.003511488 0.5591638 0 0.5 0.003511488 0.5591638 0.003511488 0.5591638 0.003511488 0.5591638 0.003511488 0.5591638 0.01398849 0.6174939 0.003511488 0.5591638 0.01398849 0.6174939 0.01398849 0.6174939 0.01398849 0.6174939 0.01398849 0.6174939 0.03128731 0.6741796 0.01398849 0.6174939 0.03128731 0.6741796 0.03128731 0.6741796 0.03128731 0.6741796 0.03128731 0.6741796 0.05517238 0.7284159 0.03128731 0.6741796 0.05517238 0.7284159 0.05517238 0.7284159 0.05517238 0.7284159 0.05517238 0.7284159 0.08529883 0.7794439 0.05517238 0.7284159 0.08529883 0.7794439 0.08529883 0.7794439 0.08529883 0.7794439 0.08529883 0.7794439 0.1212471 0.8265565 0.08529883 0.7794439 0.1212471 0.8265565 0.1212471 0.8265565 0.1212471 0.8265565 0.1212471 0.8265565 0.1625057 0.869075 0.1212471 0.8265565 0.1625057 0.869075 0.1625057 0.869075 0.1625057 0.869075 0.1625057 0.869075 0.2085115 0.9064189 0.1625057 0.869075 0.2085115 0.9064189 0.2085115 0.9064189 0.2085115 0.9064189 0.2085115 0.9064189 0.2586035 0.9380592 0.2085115 0.9064189 0.2586035 0.9380592 0.2586035 0.9380592 0.2586035 0.9380592 0.2586035 0.9380592 0.3120862 0.9635473 0.2586035 0.9380592 0.3120862 0.9635473 0.3120862 0.9635473 0.3120862 0.9635473 0.3120862 0.9635473 0.3682069 0.9825268 0.3120862 0.9635473 0.3682069 0.9825268 0.3682069 0.9825268 0.3682069 0.9825268 0.3682069 0.9825268 0.4261782 0.9947333 0.3682069 0.9825268 0.4261782 0.9947333 0.4261782 0.9947333 0.4261782 0.9947333 0.4261782 0.9947333 0.4851839 1 0.4261782 0.9947333 0.4851839 1 0.4851839 1 0.4851839 1 0.4851839 1 0.5443966 0.9982406 0.4851839 1 0.5443966 0.9982406 0.5443966 0.9982406 0.5443966 0.9982406 0.5443966 0.9982406 0.6029885 0.9894897 0.5443966 0.9982406 0.6029885 0.9894897 0.6029885 0.9894897 0.6029885 0.9894897 0.6029885 0.9894897 0.6601322 0.9738679 0.6029885 0.9894897 0.6601322 0.9738679 0.6601322 0.9738679 0.6601322 0.9738679 0.6601322 0.9738679 0.7150345 0.9515938 0.6601322 0.9738679 0.7150345 0.9515938 0.7150345 0.9515938 0.7150345 0.9515938 0.7150345 0.9515938 0.7669138 0.9229836 0.7150345 0.9515938 0.7669138 0.9229836 0.7669138 0.9229836 0.7669138 0.9229836 0.7669138 0.9229836 0.815046 0.8884341 0.7669138 0.9229836 0.815046 0.8884341 0.815046 0.8884341 0.815046 0.8884341 0.815046 0.8884341 0.8587529 0.8484281 0.815046 0.8884341 0.8587529 0.8484281 0.8587529 0.8484281 0.8587529 0.8484281 0.8587529 0.8484281 0.8974253 0.8035349 0.8587529 0.8484281 0.8974253 0.8035349 0.8974253 0.8035349 0.8974253 0.8035349 0.8974253 0.8035349 0.930523 0.7543755 0.8974253 0.8035349 0.930523 0.7543755 0.930523 0.7543755 0.930523 0.7543755 0.930523 0.7543755 0.9575747 0.7016513 0.930523 0.7543755 0.9575747 0.7016513 0.9575747 0.7016513 0.9575747 0.7016513 0.9575747 0.7016513 0.9782012 0.6460925 0.9575747 0.7016513 0.9782012 0.6460925 0.9782012 0.6460925 0.9782012 0.6460925 0.9782012 0.6460925 0.992115 0.5884812 0.9782012 0.6460925 0.992115 0.5884812 0.992115 0.5884812 0.992115 0.5884812 0.992115 0.5884812 0.9991207 0.5296337 0.992115 0.5884812 0.9991207 0.5296337 0.9991207 0.5296337 0.9991207 0.5296337 0.9991207 0.5296337 1 0.5 0.4137931 0.5 0.4137931 0.5 0.4167299 0.5223201 0.4167299 0.5223201 0.4137931 0.5 0.4167299 0.5223201 0.4167299 0.5223201 0.4167299 0.5223201 0.4253448 0.5431223 0.4253448 0.5431223 0.4167299 0.5223201 0.4253448 0.5431223 0.4253448 0.5431223 0.4253448 0.5431223 0.4390403 0.5609864 0.4390403 0.5609864 0.4253448 0.5431223 0.4390403 0.5609864 0.4390403 0.5609864 0.4390403 0.5609864 0.4568966 0.5746878 0.4568966 0.5746878 0.4390403 0.5609864 0.4568966 0.5746878 0.4568966 0.5746878 0.4568966 0.5746878 0.4776896 0.5833065 0.4776896 0.5833065 0.4568966 0.5746878 0.4776896 0.5833065 0.4776896 0.5833065 0.4776896 0.5833065 0.5 0.5862446 0.5 0.5862446 0.4776896 0.5833065 0.5 0.5862446 0.5 0.5862446 0.5 0.5862446 0.5223103 0.5833065 0.5223103 0.5833065 0.5 0.5862446 0.5223103 0.5833065 0.5223103 0.5833065 0.5223103 0.5833065 0.5431035 0.5746878 0.5431035 0.5746878 0.5223103 0.5833065 0.5431035 0.5746878 0.5431035 0.5746878 0.5431035 0.5746878 0.5609598 0.5609864 0.5609598 0.5609864 0.5431035 0.5746878 0.5609598 0.5609864 0.5609598 0.5609864 0.5609598 0.5609864 0.5746552 0.5431223 0.5746552 0.5431223 0.5609598 0.5609864 0.5746552 0.5431223 0.5746552 0.5431223 0.5746552 0.5431223 0.5832701 0.5223201 0.5832701 0.5223201 0.5746552 0.5431223 0.5832701 0.5223201 0.5832701 0.5223201 0.5832701 0.5223201 0.5862069 0.5 0.5862069 0.5 0.5832701 0.5223201 0.5862069 0.5 0.5862069 0.5 0.5862069 0.5 0.5832701 0.4776799 0.5832701 0.4776799 0.5862069 0.5 0.5832701 0.4776799 0.5832701 0.4776799 0.5832701 0.4776799 0.5746552 0.4568777 0.5746552 0.4568777 0.5832701 0.4776799 0.5746552 0.4568777 0.5746552 0.4568777 0.5746552 0.4568777 0.5609598 0.4390136 0.5609598 0.4390136 0.5746552 0.4568777 0.5609598 0.4390136 0.5609598 0.4390136 0.5609598 0.4390136 0.5431035 0.4253122 0.5431035 0.4253122 0.5609598 0.4390136 0.5431035 0.4253122 0.5431035 0.4253122 0.5431035 0.4253122 0.5223103 0.4166935 0.5223103 0.4166935 0.5431035 0.4253122 0.5223103 0.4166935 0.5223103 0.4166935 0.5223103 0.4166935 0.5 0.4137554 0.5 0.4137554 0.5223103 0.4166935 0.5 0.4137554 0.5 0.4137554 0.5 0.4137554 0.4776896 0.4166935 0.4776896 0.4166935 0.5 0.4137554 0.4776896 0.4166935 0.4776896 0.4166935 0.4776896 0.4166935 0.4568966 0.4253122 0.4568966 0.4253122 0.4776896 0.4166935 0.4568966 0.4253122 0.4568966 0.4253122 0.4568966 0.4253122 0.4390403 0.4390136 0.4390403 0.4390136 0.4568966 0.4253122 0.4390403 0.4390136 0.4390403 0.4390136 0.4390403 0.4390136 0.4253448 0.4568777 0.4253448 0.4568777 0.4390403 0.4390136 0.4253448 0.4568777 0.4253448 0.4568777 0.4253448 0.4568777 0.4167299 0.4776799 0.4167299 0.4776799 0.4253448 0.4568777 0.4167299 0.4776799 0.4167299 0.4776799 0.4167299 0.4776799 0.4137931 0.5 0.4137931 0.5 0.4167299 0.4776799 0.4137931 0.5</float_array>
          <technique_common>
            <accessor source="#Shape_IndexedFaceSet-mesh-map-0-array" count="936" stride="2">
              <param name="S" type="float"/>
              <param name="T" type="float"/>
            </accessor>
          </technique_common>
        </source>
        <vertices id="Shape_IndexedFaceSet-mesh-vertices">
          <input semantic="POSITION" source="#Shape_IndexedFaceSet-mesh-positions"/>
        </vertices>
        <triangles material="Shape-material" count="312">
          <input semantic="VERTEX" source="#Shape_IndexedFaceSet-mesh-vertices" offset="0"/>
          <input semantic="NORMAL" source="#Shape_IndexedFaceSet-mesh-normals" offset="1"/>
          <input semantic="TEXCOORD" source="#Shape_IndexedFaceSet-mesh-map-0" offset="2" set="0"/>
          <p>79 0 0 78 0 1 63 0 2 79 1 3 63 1 4 72 1 5 78 0 6 79 0 7 93 0 8 93 2 9 79 2 10 84 2 11 93 3 12 84 3 13 111 3 14 73 0 15 47 0 16 80 0 17 80 4 18 47 4 19 69 4 20 80 0 21 69 0 22 81 0 23 27 0 24 31 0 25 61 0 26 61 0 27 31 0 28 67 0 29 27 5 30 61 5 31 23 5 32 23 6 33 61 6 34 57 6 35 23 0 36 57 0 37 19 0 38 17 0 39 13 0 40 56 0 41 56 7 42 13 7 43 52 7 44 17 0 45 56 0 46 21 0 47 21 8 48 56 8 49 60 8 50 21 9 51 60 9 52 25 9 53 25 0 54 60 0 55 29 0 56 29 10 57 60 10 58 66 10 59 29 0 60 66 0 61 33 0 62 63 3 63 45 3 64 72 3 65 72 11 66 45 11 67 41 11 68 72 0 69 41 0 70 66 0 71 66 12 72 41 12 73 37 12 74 66 13 75 37 13 76 33 13 77 111 14 78 84 14 79 115 14 80 115 15 81 84 15 82 90 15 83 115 16 84 90 16 85 119 16 86 155 0 87 151 0 88 107 0 89 107 0 90 151 0 91 104 0 92 155 0 93 107 0 94 153 0 95 153 17 96 107 17 97 105 17 98 153 0 99 105 0 100 149 0 101 31 0 102 35 0 103 67 0 104 67 18 105 35 18 106 39 18 107 67 19 108 39 19 109 73 19 110 73 20 111 39 20 112 43 20 113 73 21 114 43 21 115 47 21 116 53 0 117 49 0 118 3 0 119 13 0 120 9 0 121 52 0 122 52 0 123 9 0 124 5 0 125 52 0 126 5 0 127 49 0 128 49 22 129 5 22 130 1 22 131 49 23 132 1 23 133 3 23 134 119 24 135 90 24 136 123 24 137 123 25 138 90 25 139 96 25 140 123 0 141 96 0 142 127 0 143 100 0 144 135 0 145 96 0 146 96 26 147 135 26 148 131 26 149 96 0 150 131 0 151 127 0 152 151 0 153 147 0 154 104 0 155 104 27 156 147 27 157 143 27 158 104 7 159 143 7 160 100 7 161 100 28 162 143 28 163 139 28 164 100 0 165 139 0 166 135 0 167 149 0 168 105 0 169 145 0 170 145 29 171 105 29 172 101 29 173 145 30 174 101 30 175 141 30 176 97 0 177 133 0 178 101 0 179 101 0 180 133 0 181 137 0 182 101 31 183 137 31 184 141 31 185 91 0 186 125 0 187 97 0 188 97 32 189 125 32 190 129 32 191 97 33 192 129 33 193 133 33 194 85 19 195 117 19 196 91 19 197 91 18 198 117 18 199 121 18 200 91 34 201 121 34 202 125 34 203 3 0 204 7 0 205 53 0 206 53 0 207 7 0 208 11 0 209 53 35 210 11 35 211 57 35 212 57 36 213 11 36 214 15 36 215 57 31 216 15 31 217 19 31 218 81 0 219 87 0 220 80 0 221 80 4 222 87 4 223 109 4 224 80 0 225 109 0 226 85 0 227 85 21 228 109 21 229 113 21 230 85 20 231 113 20 232 117 20 233 44 37 234 62 37 235 70 37 236 70 37 237 62 37 238 75 37 239 44 37 240 70 37 241 40 37 242 40 37 243 70 37 244 64 37 245 40 37 246 64 37 247 36 37 248 58 37 249 28 37 250 64 37 251 64 37 252 28 37 253 32 37 254 64 37 255 32 37 256 36 37 257 0 37 258 4 37 259 48 37 260 48 37 261 4 37 262 50 37 263 0 37 264 48 37 265 2 37 266 2 37 267 48 37 268 51 37 269 2 37 270 51 37 271 6 37 272 54 37 273 20 37 274 58 37 275 58 37 276 20 37 277 24 37 278 58 37 279 24 37 280 28 37 281 4 37 282 8 37 283 50 37 284 50 37 285 8 37 286 12 37 287 50 37 288 12 37 289 54 37 290 54 37 291 12 37 292 16 37 293 54 37 294 16 37 295 20 37 296 106 37 297 154 37 298 152 37 299 6 37 300 51 37 301 10 37 302 10 37 303 51 37 304 55 37 305 10 37 306 55 37 307 14 37 308 59 37 309 22 37 310 55 37 311 55 37 312 22 37 313 18 37 314 55 37 315 18 37 316 14 37 317 38 37 318 65 37 319 71 37 320 106 37 321 152 37 322 103 37 323 62 37 324 74 37 325 75 37 326 75 37 327 74 37 328 92 37 329 75 37 330 92 37 331 82 37 332 38 37 333 34 37 334 65 37 335 65 37 336 34 37 337 30 37 338 65 37 339 30 37 340 59 37 341 59 37 342 30 37 343 26 37 344 59 37 345 26 37 346 22 37 347 89 37 348 120 37 349 116 37 350 154 37 351 106 37 352 150 37 353 150 37 354 106 37 355 102 37 356 150 37 357 102 37 358 146 37 359 146 37 360 102 37 361 142 37 362 142 37 363 102 37 364 98 37 365 142 37 366 98 37 367 138 37 368 138 37 369 98 37 370 134 37 371 134 37 372 98 37 373 94 37 374 134 37 375 94 37 376 130 37 377 92 37 378 110 37 379 82 37 380 82 37 381 110 37 382 114 37 383 82 37 384 114 37 385 88 37 386 77 37 387 68 37 388 76 37 389 76 37 390 68 37 391 46 37 392 76 37 393 46 37 394 71 37 395 71 37 396 46 37 397 42 37 398 71 37 399 42 37 400 38 37 401 89 37 402 116 37 403 83 37 404 120 37 405 89 37 406 124 37 407 124 37 408 89 37 409 95 37 410 124 37 411 95 37 412 128 37 413 114 37 414 118 37 415 88 37 416 88 37 417 118 37 418 122 37 419 88 37 420 122 37 421 94 37 422 94 37 423 122 37 424 126 37 425 94 37 426 126 37 427 130 37 428 116 37 429 112 37 430 83 37 431 83 37 432 112 37 433 108 37 434 83 37 435 108 37 436 76 37 437 76 37 438 108 37 439 86 37 440 76 37 441 86 37 442 77 37 443 128 37 444 95 37 445 132 37 446 132 37 447 95 37 448 99 37 449 132 37 450 99 37 451 136 37 452 152 37 453 148 37 454 103 37 455 103 37 456 148 37 457 144 37 458 103 37 459 144 37 460 99 37 461 99 37 462 144 37 463 140 37 464 99 37 465 140 37 466 136 37 467 87 38 468 81 39 469 77 40 470 77 41 471 81 42 472 68 43 473 81 44 474 69 45 475 68 46 476 68 47 477 69 48 478 47 49 479 68 50 480 47 51 481 46 52 482 46 53 483 47 54 484 43 55 485 46 56 486 43 57 487 42 58 488 42 59 489 43 60 490 39 61 491 42 62 492 39 63 493 38 64 494 38 65 495 39 66 496 35 67 497 38 68 498 35 69 499 34 70 500 34 71 501 35 72 502 31 73 503 34 74 504 31 75 505 30 76 506 30 77 507 31 78 508 27 79 509 30 80 510 27 81 511 26 82 512 26 83 513 27 84 514 23 85 515 26 86 516 23 87 517 22 88 518 22 89 519 23 90 520 19 91 521 22 92 522 19 93 523 18 94 524 18 95 525 19 96 526 15 97 527 18 98 528 15 99 529 14 100 530 14 101 531 15 102 532 11 103 533 14 104 534 11 105 535 10 106 536 10 107 537 11 108 538 7 109 539 10 110 540 7 111 541 6 112 542 6 113 543 7 114 544 3 115 545 6 116 546 3 117 547 2 118 548 2 119 549 3 120 550 1 121 551 2 122 552 1 123 553 0 124 554 0 125 555 1 126 556 5 127 557 0 128 558 5 129 559 4 130 560 4 131 561 5 132 562 9 133 563 4 134 564 9 135 565 8 136 566 8 137 567 9 138 568 13 139 569 8 140 570 13 141 571 12 142 572 12 143 573 13 144 574 17 145 575 12 146 576 17 147 577 16 148 578 16 149 579 17 150 580 21 151 581 16 152 582 21 153 583 20 154 584 20 155 585 21 156 586 25 157 587 20 158 588 25 159 589 24 160 590 24 161 591 25 162 592 29 163 593 24 164 594 29 165 595 28 166 596 28 167 597 29 168 598 33 169 599 28 170 600 33 171 601 32 172 602 32 173 603 33 174 604 37 175 605 32 176 606 37 177 607 36 178 608 36 179 609 37 180 610 41 181 611 36 182 612 41 183 613 40 184 614 40 185 615 41 186 616 45 187 617 40 188 618 45 189 619 44 190 620 44 191 621 45 192 622 63 193 623 44 194 624 63 195 625 62 196 626 62 197 627 63 198 628 78 199 629 62 200 630 78 201 631 74 202 632 74 203 633 78 204 634 93 205 635 74 206 636 93 207 637 92 208 638 92 209 639 93 210 640 111 211 641 92 212 642 111 213 643 110 214 644 110 215 645 111 216 646 115 217 647 110 218 648 115 219 649 114 220 650 114 221 651 115 222 652 119 223 653 114 224 654 119 225 655 118 226 656 118 227 657 119 228 658 123 229 659 118 230 660 123 231 661 122 232 662 122 233 663 123 234 664 127 235 665 122 236 666 127 237 667 126 238 668 126 239 669 127 240 670 131 241 671 126 242 672 131 243 673 130 244 674 130 245 675 131 246 676 135 247 677 130 248 678 135 249 679 134 250 680 134 251 681 135 252 682 139 253 683 134 254 684 139 255 685 138 256 686 138 257 687 139 258 688 143 259 689 138 260 690 143 261 691 142 262 692 142 263 693 143 264 694 147 265 695 142 266 696 147 267 697 146 268 698 146 269 699 147 270 700 151 271 701 146 272 702 151 273 703 150 274 704 150 275 705 151 276 706 155 277 707 150 278 708 155 279 709 154 280 710 154 281 711 155 282 712 153 283 713 154 284 714 153 285 715 152 286 716 152 287 717 153 288 718 149 289 719 152 290 720 149 291 721 148 292 722 148 293 723 149 294 724 145 295 725 148 296 726 145 297 727 144 298 728 144 299 729 145 300 730 141 301 731 144 302 732 141 303 733 140 304 734 140 305 735 141 306 736 137 307 737 140 308 738 137 309 739 136 310 740 136 311 741 137 312 742 133 313 743 136 314 744 133 315 745 132 316 746 132 317 747 133 318 748 129 319 749 132 320 750 129 321 751 128 322 752 128 323 753 129 324 754 125 325 755 128 326 756 125 327 757 124 328 758 124 329 759 125 330 760 121 331 761 124 332 762 121 333 763 120 334 764 120 335 765 121 336 766 117 337 767 120 338 768 117 339 769 116 340 770 116 341 771 117 342 772 113 343 773 116 344 774 113 345 775 112 346 776 112 347 777 113 348 778 109 349 779 112 350 780 109 351 781 108 352 782 108 353 783 109 354 784 87 355 785 108 356 786 87 357 787 86 358 788 86 359 789 87 360 790 77 361 791 79 362 792 75 363 793 84 364 794 84 365 795 75 366 796 82 367 797 84 368 798 82 369 799 90 370 800 90 371 801 82 372 802 88 373 803 90 374 804 88 375 805 96 376 806 96 377 807 88 378 808 94 379 809 96 380 810 94 381 811 100 382 812 100 383 813 94 384 814 98 385 815 100 386 816 98 387 817 104 388 818 104 389 819 98 390 820 102 391 821 104 392 822 102 393 823 107 394 824 107 395 825 102 396 826 106 397 827 107 398 828 106 399 829 105 400 830 105 401 831 106 402 832 103 403 833 105 404 834 103 405 835 101 406 836 101 407 837 103 408 838 99 409 839 101 410 840 99 411 841 97 412 842 97 413 843 99 414 844 95 415 845 97 416 846 95 417 847 91 418 848 91 419 849 95 420 850 89 421 851 91 422 852 89 423 853 85 424 854 85 425 855 89 426 856 83 427 857 85 428 858 83 429 859 80 430 860 80 431 861 83 432 862 76 433 863 80 434 864 76 435 865 73 436 866 73 437 867 76 438 868 71 439 869 73 440 870 71 441 871 67 442 872 67 443 873 71 444 874 65 445 875 67 446 876 65 447 877 61 448 878 61 449 879 65 450 880 59 451 881 61 452 882 59 453 883 57 454 884 57 455 885 59 456 886 55 457 887 57 458 888 55 459 889 53 460 890 53 461 891 55 462 892 51 463 893 53 464 894 51 465 895 49 466 896 49 467 897 51 468 898 48 469 899 49 470 900 48 471 901 52 472 902 52 473 903 48 474 904 50 475 905 52 476 906 50 477 907 56 478 908 56 479 909 50 480 910 54 481 911 56 482 912 54 483 913 60 484 914 60 485 915 54 486 916 58 487 917 60 488 918 58 489 919 66 490 920 66 491 921 58 492 922 64 493 923 66 494 924 64 495 925 72 496 926 72 497 927 64 498 928 70 499 929 72 500 930 70 501 931 79 502 932 79 503 933 70 504 934 75 505 935</p>
        </triangles>
      </mesh>
    </geometry>
  </library_geometries>
  <library_visual_scenes>
    <visual_scene id="Scene" name="Scene">
      <node id="Shape_IndexedFaceSet" name="Shape_IndexedFaceSet" type="NODE">
        <matrix sid="transform">1 0 0 0 0 7.54979e-8 -1 0 0 1 7.54979e-8 -0.0125 0 0 0 1</matrix>
        <instance_geometry url="#Shape_IndexedFaceSet-mesh" name="Shape_IndexedFaceSet">
          <bind_material>
            <technique_common>
              <instance_material symbol="Shape-material" target="#Shape-material">
                <bind_vertex_input semantic="UVMap" input_semantic="TEXCOORD" input_set="0"/>
              </instance_material>
            </technique_common>
          </bind_material>
        </instance_geometry>
      </node>
      <node id="Camera" name="Camera" type="NODE">
        <matrix sid="transform">0.6859207 -0.3240135 0.6515582 7.358891 0.7276763 0.3054208 -0.6141704 -6.925791 0 0.8953956 0.4452714 4.958309 0 0 0 1</matrix>
        <instance_camera url="#Camera-camera"/>
      </node>
      <node id="Light" name="Light" type="NODE">
        <matrix sid="transform">-0.2908646 -0.7711008 0.5663932 4.076245 0.9551712 -0.1998834 0.2183912 1.005454 -0.05518906 0.6045247 0.7946723 5.903862 0 0 0 1</matrix>
        <instance_light url="#Light-light"/>
      </node>
    </visual_scene>
  </library_visual_scenes>
  <scene>
    <instance_visual_scene url="#Scene"/>
  </scene>
</COLLADA>